<?xml version="1.0" standalone="no"?>
<!DOCTYPE svg PUBLIC "-//W3C//DTD SVG 20010904//EN"
 "http://www.w3.org/TR/2001/REC-SVG-20010904/DTD/svg10.dtd">
<svg version="1.0" xmlns="http://www.w3.org/2000/svg"
 width="333.000000pt" height="333.000000pt" viewBox="0 0 333.000000 333.000000"
 preserveAspectRatio="xMidYMid meet">
<metadata>
Created by potrace 1.14, written by Peter Selinger 2001-2017
</metadata>
<g transform="translate(0.000000,333.000000) scale(0.100000,-0.100000)"
fill="#000000" stroke="none">
<path d="M1539 3226 c-2 -2 -33 -7 -68 -10 -107 -11 -300 -62 -390 -103 -184
-83 -225 -107 -356 -204 -96 -72 -193 -163 -253 -238 -21 -25 -40 -48 -43 -51
-4 -3 -34 -47 -68 -99 -51 -78 -97 -164 -151 -286 -11 -24 -51 -143 -55 -165
-2 -8 -10 -46 -19 -83 -24 -101 -31 -186 -30 -347 0 -196 18 -308 75 -482 44
-134 161 -361 224 -435 5 -6 37 -45 69 -85 49 -60 115 -125 229 -223 17 -14
53 -39 113 -78 27 -17 59 -38 70 -45 64 -42 296 -139 374 -157 8 -2 38 -9 65
-15 121 -28 226 -38 380 -35 88 2 174 6 190 9 17 3 65 13 108 22 176 34 379
119 539 226 114 77 130 90 243 203 202 201 316 392 401 670 14 44 26 89 28
100 2 11 7 40 11 65 4 25 9 54 12 65 3 11 6 90 8 175 4 140 -5 242 -30 365 -9
44 -67 238 -76 255 -5 8 -25 51 -45 95 -139 303 -418 584 -729 734 -215 105
-411 151 -656 157 -91 2 -168 2 -170 0z"/>
</g>
</svg>
